<?xml version="1.0" encoding="UTF-8" standalone="no"?>
<svg width="9px" height="16px" viewBox="0 0 9 16" version="1.1" xmlns="http://www.w3.org/2000/svg" xmlns:xlink="http://www.w3.org/1999/xlink">
    <!-- Generator: Sketch 3.7.1 (28215) - http://www.bohemiancoding.com/sketch -->
    <title>Page 1</title>
    <desc>Created with Sketch.</desc>
    <defs>
        <polygon id="path-1" points="4.1168 15.2030118 8.23341176 15.2030118 8.23341176 0.000188235294 4.1168 0.000188235294 0.000188235294 0.000188235294 0.000188235294 15.2030118"></polygon>
    </defs>
    <g id="Symbols" stroke="none" stroke-width="1" fill="none" fill-rule="evenodd">
        <g id="Navs-/-Web-Nav---Work" transform="translate(-164.000000, -8.000000)">
            <g id="Page-1" transform="translate(164.000000, 8.000000)">
                <mask id="mask-2" fill="white">
                    <use xlink:href="#path-1"></use>
                </mask>
                <g id="Clip-2"></g>
                <path d="M2.41618824,7.93618824 C2.94512941,8.18371765 3.5296,8.31454118 4.11689412,8.31454118 C4.70418824,8.31454118 5.28865882,8.18371765 5.81665882,7.93618824 C5.83642353,7.96536471 5.85618824,7.99548235 5.87595294,8.02654118 C6.12442353,8.42089412 6.32865882,8.88112941 6.48207059,9.39312941 C6.68536471,10.0707765 6.78795294,10.8011294 6.78795294,11.5625412 C6.78889412,12.0670118 6.7456,12.5404235 6.65712941,13.0081882 C6.02089412,13.4288941 5.34701176,13.6651294 4.6016,13.7310118 C4.57807059,13.7328941 4.51407059,13.7338353 4.42465882,13.7338353 C4.07830588,13.7338353 3.47595294,13.7187765 3.28395294,13.6867765 C2.67312941,13.5851294 2.11407059,13.3630118 1.57571765,13.0081882 C1.48724706,12.5404235 1.44489412,12.0670118 1.44583529,11.5634824 C1.44583529,10.2138353 1.7696,8.95830588 2.35783529,8.02654118 C2.37665882,7.99548235 2.39642353,7.96536471 2.41618824,7.93618824 M1.4336,4.10183529 C1.4336,2.6176 2.64112941,1.41007059 4.12536471,1.41007059 C5.6096,1.41007059 6.81712941,2.6176 6.81712941,4.10183529 C6.81712941,5.58607059 5.6096,6.79265882 4.12536471,6.79265882 C2.64112941,6.79265882 1.4336,5.58607059 1.4336,4.10183529 M7.08254118,7.38465882 C7.02889412,7.29901176 6.97336471,7.21618824 6.91595294,7.13524706 C7.75548235,6.35689412 8.2336,5.26607059 8.2336,4.11689412 C8.2336,1.84677647 6.38701176,0.000188235294 4.11689412,0.000188235294 C1.84677647,0.000188235294 0.000188235294,1.84677647 0.000188235294,4.11689412 C0.000188235294,5.26607059 0.478305882,6.35689412 1.31783529,7.13524706 C1.25571765,7.22183529 1.20301176,7.30183529 1.15124706,7.38465882 C0.421835294,8.53948235 0.0133647059,10.0641882 0.000188235294,11.6792471 C0.00489411765,12.2844235 0.0623058824,12.8528941 0.176188235,13.4204235 L0.254305882,13.8128941 L0.269364706,13.8881882 L0.333364706,13.9314824 L0.663717647,14.1573647 C1.68112941,14.8510118 2.81901176,15.2030118 4.04818824,15.2030118 L4.10936471,15.2030118 L4.16771765,15.2030118 C5.42607059,15.2030118 6.53854118,14.8613647 7.56912941,14.1573647 L7.90042353,13.9314824 L7.96348235,13.8881882 L7.97854118,13.8128941 L8.05665882,13.4204235 C8.17054118,12.8528941 8.22795294,12.2834824 8.23265882,11.6801882 C8.22607059,10.7879529 8.10089412,9.93148235 7.86089412,9.1296 C7.66795294,8.48301176 7.40536471,7.89665882 7.08254118,7.38465882" id="Fill-1" fill="#231F1F" mask="url(#mask-2)"></path>
            </g>
        </g>
    </g>
</svg>