<?xml version="1.0" encoding="UTF-8" standalone="no"?>
<svg width="34px" height="34px" viewBox="0 0 34 34" version="1.1" xmlns="http://www.w3.org/2000/svg" xmlns:xlink="http://www.w3.org/1999/xlink">
    <!-- Generator: Sketch 3.7.1 (28215) - http://www.bohemiancoding.com/sketch -->
    <title>Menu close</title>
    <desc>Created with Sketch.</desc>
    <defs></defs>
    <g id="Page-1" stroke="none" stroke-width="1" fill="none" fill-rule="evenodd">
        <g id="Sm-Mobile-Home" transform="translate(-318.000000, -17.000000)" fill="#D8D8D8">
            <path d="M335,31.9229465 L321.216217,18.1391632 C320.826672,17.7496184 320.194324,17.7469337 319.80596,18.1352979 L319.135298,18.8059602 C318.747562,19.1936961 318.748664,19.8257177 319.139163,20.2162167 L332.922947,34 L319.139163,47.7837833 C318.749618,48.1733282 318.746934,48.8056756 319.135298,49.1940398 L319.80596,49.8647021 C320.193696,50.252438 320.825718,50.2513357 321.216217,49.8608368 L335,36.0770535 L348.783783,49.8608368 C349.173328,50.2503816 349.805676,50.2530663 350.19404,49.8647021 L350.864702,49.1940398 C351.252438,48.8063039 351.251336,48.1742823 350.860837,47.7837833 L337.077053,34 L350.860837,20.2162167 C351.250382,19.8266718 351.253066,19.1943244 350.864702,18.8059602 L350.19404,18.1352979 C349.806304,17.747562 349.174282,17.7486643 348.783783,18.1391632 L335,31.9229465 Z" id="Menu-close"></path>
        </g>
    </g>
</svg>