<?xml version="1.0" encoding="UTF-8" standalone="no"?>
<svg width="16px" height="13px" viewBox="0 0 16 13" version="1.1" xmlns="http://www.w3.org/2000/svg" xmlns:xlink="http://www.w3.org/1999/xlink">
    <!-- Generator: Sketch 3.7.1 (28215) - http://www.bohemiancoding.com/sketch -->
    <title>Combined Shape</title>
    <desc>Created with Sketch.</desc>
    <defs></defs>
    <g id="Symbols" stroke="none" stroke-width="1" fill="none" fill-rule="evenodd">
        <g id="Navs-/-Web-Nav---Work" transform="translate(-198.000000, -10.000000)" fill="#4B4B4B">
            <g id="Icons-/-Connect" transform="translate(190.000000, 0.000000)">
                <g id="Group-2" transform="translate(8.000000, 10.000000)">
                    <path d="M7.58059186,10.5980149 C4.04271312,10.5980149 1.17471641,8.48206394 1.17471641,5.87187312 C1.17471641,3.26169662 4.04271312,1.14573134 7.58059186,1.14573134 C11.1184706,1.14573134 13.9864673,3.26169662 13.9864673,5.87187312 C13.9864673,6.73772378 13.6708724,7.5491522 13.1199671,8.2470458 L14.0316939,10.0687228 L14.8252515,11.654236 L13.1661482,10.951115 L10.8120532,9.95350522 C9.86339624,10.3631758 8.75916281,10.5980149 7.58059186,10.5980149 L7.58059186,10.5980149 Z M1.33226763e-14,5.87187312 C1.33226763e-14,7.61424406 0.960048002,9.10774067 2.34226339,10.1275132 C3.72377761,11.1467486 5.57968271,11.7437462 7.58059186,11.7437462 C8.68834944,11.7381608 9.82404324,11.5318576 10.7902108,11.193473 L14.357127,12.7050506 C14.8083283,12.8962804 15.3339405,12.7929855 15.6740576,12.4462944 C16.0141747,12.0995674 16.0967352,11.5828426 15.8809178,11.151618 L14.4630718,8.31879722 C14.8793986,7.57557563 15.1463896,6.69676388 15.1611837,5.87187312 C15.1611837,4.12950219 14.2011467,2.63600916 12.8189093,1.61623666 C11.4374061,0.596979735 9.58150101,2.66453526e-15 7.58059186,2.66453526e-15 C5.57968271,2.66453526e-15 3.72377761,0.596979735 2.34226339,1.61623666 C0.960048002,2.63600916 1.33226763e-14,4.12950219 1.33226763e-14,5.87187312 L1.33226763e-14,5.87187312 Z" id="Combined-Shape"></path>
                </g>
            </g>
        </g>
    </g>
</svg>