<?xml version="1.0" encoding="UTF-8" standalone="no"?>
<svg width="16px" height="16px" viewBox="0 0 16 16" version="1.1" xmlns="http://www.w3.org/2000/svg" xmlns:xlink="http://www.w3.org/1999/xlink">
    <!-- Generator: Sketch 3.7.1 (28215) - http://www.bohemiancoding.com/sketch -->
    <title>Fill 1</title>
    <desc>Created with Sketch.</desc>
    <defs></defs>
    <g id="Symbols" stroke="none" stroke-width="1" fill="none" fill-rule="evenodd">
        <g id="Navs-/-Web-Nav---Open" transform="translate(-282.000000, -8.000000)" fill="#FFFFFF">
            <g id="Icons-/-Dribbble" transform="translate(274.000000, 0.000000)">
                <path d="M21.3071211,11.6892413 C21.1628747,11.8840857 20.0162836,13.3519885 17.4864367,14.3835179 C17.6456109,14.7089668 17.7982437,15.0400626 17.9403656,15.373283 C17.9906841,15.4913637 18.0397726,15.6088854 18.0877429,15.7259039 C20.3644877,15.4400389 22.6266402,15.8982168 22.8522348,15.9458517 C22.8371952,14.3330317 22.2600978,12.8520461 21.3071211,11.6892413 M14.4072235,9.36709798 C14.5963652,9.62003236 15.8391205,11.3101193 16.9603287,13.3673636 C19.3933964,12.4566544 20.4234163,11.0740695 20.546473,10.899017 C19.3381579,9.8284628 17.7492671,9.17717357 16.0107067,9.17717357 C15.4586008,9.17717357 14.9217582,9.24325854 14.4072235,9.36709798 M9.31286581,14.6109016 C9.61885826,14.6149271 12.4378689,14.6271154 15.6385174,13.778354 C14.5047855,11.7656695 13.2820457,10.0735139 13.1016818,9.82645006 C11.187398,10.7281577 9.75650734,12.4904797 9.31286581,14.6109016 M10.9273072,20.5793477 C11.0822882,20.3143928 12.960175,17.2092376 16.489068,16.0700825 C16.5782435,16.0412891 16.6681459,16.014229 16.7587193,15.9887902 C16.5869095,15.6006108 16.3998365,15.2119842 16.2039297,14.8291722 C12.7869116,15.8504143 9.47114548,15.8077553 9.17180626,15.8016612 C9.1696817,15.8709889 9.16828396,15.9405403 9.16828396,16.0104271 C9.16828396,17.7654808 9.83450103,19.3679017 10.9273072,20.5793477 M18.6834581,22.3006321 C18.581647,21.701115 18.1844103,19.6116669 17.2237741,17.1187202 C17.2087345,17.123808 17.1936948,17.1286721 17.1786552,17.1339276 C13.3192814,18.4769845 11.933901,21.1497919 11.8107325,21.4011608 C12.9709096,22.3046576 14.4289164,22.8436807 16.0107067,22.8436807 C16.9585396,22.8436807 17.8619246,22.6500662 18.6834581,22.3006321 M22.7665256,17.0950705 C22.5324327,17.0212701 20.6486196,16.4602187 18.504492,16.8029995 C19.3994346,19.2589901 19.7636288,21.2593185 19.8337393,21.6750053 C21.3687892,20.638444 22.4615395,18.9963834 22.7665256,17.0950705 M16.0107067,24 C11.5935802,24 8,20.411228 8,16.000028 C8,11.588772 11.5935802,8 16.0107067,8 C20.4277772,8 24.0213574,11.588772 24.0213574,16.000028 C24.0213574,20.411228 20.4277772,24 16.0107067,24" id="Fill-1"></path>
            </g>
        </g>
    </g>
</svg>