<?xml version="1.0" encoding="UTF-8" standalone="no"?>
<svg width="116px" height="180px" viewBox="0 0 116 180" version="1.1" xmlns="http://www.w3.org/2000/svg" xmlns:xlink="http://www.w3.org/1999/xlink">
    <!-- Generator: Sketch 3.7.1 (28215) - http://www.bohemiancoding.com/sketch -->
    <title>final_</title>
    <desc>Created with Sketch.</desc>
    <defs></defs>
    <g id="Page-1" stroke="none" stroke-width="1" fill="none" fill-rule="evenodd">
        <g id="Dribbble-HD" transform="translate(-347.000000, -149.000000)">
            <g id="final_" transform="translate(347.000000, 149.000000)">
                <path d="M70.9280303,83.1164608 L70.9280303,82.8598485 L65.7176705,82.8598485 L57.6704545,82.8598485 L13.9204545,82.8598485 L0.662878788,82.8598485 L0.662878788,96.1174242 L0.662878788,166.382576 L0.662878788,179.640152 L13.9204545,179.640152 L57.6704545,179.640152 L65.7176705,179.640152 L70.9280303,179.640152 L70.9280303,179.383485 C96.2519886,176.874886 116.003788,156.282159 116.003788,131.25 C116.003788,106.217841 96.2519886,85.6250871 70.9280303,83.1164608 L70.9280303,83.1164608 Z M69.6210985,96.3095265 C88.6469129,98.1942235 102.746212,113.509773 102.746212,131.25 C102.746212,148.990227 88.6469129,164.305777 69.6210985,166.190473 L67.6825758,166.382576 L65.7176705,166.382576 L13.9204545,166.382576 L13.9204545,96.1174242 L65.7176705,96.1174242 L67.6825758,96.1174242 L69.6210985,96.3095265 L69.6210985,96.3095265 Z" id="path0_fill" fill="#9CADC3" transform="translate(58.333333, 131.250000) rotate(0.000000) translate(-58.333333, -131.250000) "></path>
                <path d="M13.9204545,166.382576 L23.2007576,166.382576 L23.2007576,112.026515 L60.3219697,112.026515 C90.3420265,112.026515 114.67803,87.9872159 114.67803,58.3333333 C114.67803,28.6794508 90.3420265,4.64015152 60.3219697,4.64015152 L13.9204545,4.64015152 L13.9204545,13.9204545 L13.9204545,30.3533523 C8.87428977,38.5015909 5.96590909,48.0819129 5.96590909,58.3333333 C5.96590909,68.5847538 8.87428977,78.1650758 13.9204545,86.3133144 L13.9204545,112.026515 L13.9204545,166.382576 L13.9204545,166.382576 Z" id="path1_fill" fill="#454D57" transform="translate(60.321970, 85.511364) rotate(0.000000) translate(-60.321970, -85.511364) "></path>
                <path d="M61.6477273,0.662878788 L7.29166667,0.662878788 C3.63069318,0.662878788 0.662878788,3.63069318 0.662878788,7.29166667 L0.662878788,96.1174242 C0.662878788,99.7783712 3.63069318,102.746212 7.29166667,102.746212 L61.6477273,102.746212 C90.2033523,102.746212 113.352273,79.8941288 113.352273,51.7045455 C113.352273,23.5149621 90.2033523,0.662878788 61.6477273,0.662878788 L61.6477273,0.662878788 Z" id="path2_fill" fill="#F8FAFC" transform="translate(57.007576, 51.704545) rotate(0.000000) translate(-57.007576, -51.704545) "></path>
                <path d="M0.662878788,96.1174242 C0.662878788,99.7783712 3.63069318,102.746212 7.29166667,102.746212 L61.6477273,102.746212 C90.2033523,102.746212 113.352273,79.8941288 113.352273,51.7045455 C113.352273,23.5149621 90.2033523,0.662878788 61.6477273,0.662878788 L7.29166667,0.662878788 C3.63069318,0.662878788 0.662878788,3.63069318 0.662878788,7.29166667 L0.662878788,96.1174242 L0.662878788,96.1174242 Z M13.9204545,13.9204545 L61.6477273,13.9204545 C83.0432008,13.9204545 100.094697,30.9976705 100.094697,51.7045455 C100.094697,72.4114205 83.0432008,89.4886364 61.6477273,89.4886364 L13.9204545,89.4886364 L13.9204545,13.9204545 L13.9204545,13.9204545 Z" id="path3_fill" fill="#9CAEC3" transform="translate(57.007576, 51.704545) rotate(0.000000) translate(-57.007576, -51.704545) "></path>
                <path d="M21.875,13.9204545 L13.9204545,13.9204545 L13.9204545,21.875 L13.9204545,89.4886364 L21.875,89.4886364 L21.875,21.875 L38.0467235,21.875 L61.6477273,21.875 L66.9507576,21.875 C84.613428,21.875 99.0492045,35.9674053 100.040341,53.7301705 C100.076402,53.0594697 100.094697,52.3841288 100.094697,51.7045455 C100.094697,30.8369886 82.8814583,13.9204545 61.6477273,13.9204545 L21.875,13.9204545 L21.875,13.9204545 Z" id="path4_fill" fill="#454D57"></path>
            </g>
        </g>
    </g>
</svg>