<?xml version="1.0" encoding="UTF-8" standalone="no"?>
<svg width="16px" height="11px" viewBox="0 0 16 11" version="1.1" xmlns="http://www.w3.org/2000/svg" xmlns:xlink="http://www.w3.org/1999/xlink">
    <!-- Generator: Sketch 3.7.1 (28215) - http://www.bohemiancoding.com/sketch -->
    <title>path0_fill</title>
    <desc>Created with Sketch.</desc>
    <defs></defs>
    <g id="Symbols" stroke="none" stroke-width="1" fill="none" fill-rule="evenodd">
        <g id="Navs-/-Web-Nav---Open" transform="translate(-367.000000, -11.000000)" fill="#FFFFFF">
            <g id="Icons-/-Email" transform="translate(359.000000, 0.000000)">
                <path d="M23,11 L9,11 C8.447715,11 8,11.498384 8,12.1131725 L8,20.7959184 C8,21.4107236 8.447715,21.9090909 9,21.9090909 L23,21.9090909 C23.5523,21.9090909 24,21.4107236 24,20.7959184 L24,12.1131725 C24,11.498384 23.5523,11 23,11 L23,11 Z M22.4,12.3636364 L15.9643848,17.0748469 C15.9640828,17.0747803 15.9637204,17.0747138 15.9634184,17.0747138 C15.9630559,17.0747138 15.9627539,17.0747803 15.9623915,17.0748469 L9.6,12.3636364 L22.4,12.3636364 L22.4,12.3636364 Z M22.6666669,13.7272727 L22.6666669,20.5454545 L9.33333333,20.5454545 L9.33333333,13.7272727 L15.21385,18.2192579 C15.7116,18.5913915 16.4346,18.5935622 16.9341,18.2243228 L22.6666669,13.7272727 Z" id="path0_fill"></path>
            </g>
        </g>
    </g>
</svg>