<?xml version="1.0" encoding="UTF-8" standalone="no"?>
<svg width="16px" height="14px" viewBox="0 0 16 14" version="1.1" xmlns="http://www.w3.org/2000/svg" xmlns:xlink="http://www.w3.org/1999/xlink">
    <!-- Generator: Sketch 3.7.1 (28215) - http://www.bohemiancoding.com/sketch -->
    <title>Combined Shape</title>
    <desc>Created with Sketch.</desc>
    <defs></defs>
    <g id="Symbols" stroke="none" stroke-width="1" fill="none" fill-rule="evenodd">
        <g id="Navs-/-Web-Nav---Open" transform="translate(-324.000000, -9.000000)" fill="#FFFFFF">
            <g id="Icons-/-Medium" transform="translate(316.000000, 0.000000)">
                <path d="M23.9510769,11.477803 C23.9480192,11.4753569 23.945573,11.4721463 23.9417509,11.4703117 L23.9362471,11.4675598 L19.1096757,9.05427408 C19.0771112,9.03791542 19.0428651,9.02690771 19.0081602,9.0180404 C18.9645881,9.00687981 18.9200986,9 18.8754563,9 C18.6906186,9 18.5066983,9.09280104 18.4070174,9.2545531 L15.6283372,13.7701569 L19.1154853,19.4366771 L23.9659067,11.554857 C23.9819596,11.5285608 23.9743154,11.4961492 23.9510769,11.477803 Z M14.097808,12.7415483 L14.097808,17.8816863 L18.6666157,20.1660902 L14.097808,12.7415483 Z M19.3530682,20.5093164 L23.11388,22.3896459 C23.6032641,22.6344144 24,22.4630306 24,22.0071283 L24,12.9580331 L19.3530682,20.5093164 Z M13.304642,11.4851415 L8.59074665,9.12811742 C8.50558985,9.08561546 8.42456093,9.06543467 8.35117626,9.06543467 C8.14478185,9.06543467 8,9.22519923 8,9.49320618 L8,19.6707436 C8,19.9431842 8.19936171,20.265771 8.44305999,20.3876202 L12.594951,22.4634892 C12.7013588,22.5166931 12.8027213,22.5419191 12.8942993,22.5419191 C13.1523688,22.5419191 13.3333843,22.3422516 13.3333843,22.0071283 L13.3333843,11.5314656 C13.3333843,11.5118963 13.3222237,11.4938559 13.304642,11.4851415 Z" id="Combined-Shape"></path>
            </g>
        </g>
    </g>
</svg>