<?xml version="1.0" encoding="UTF-8" standalone="no"?>
<svg width="12px" height="12px" viewBox="0 0 12 12" version="1.1" xmlns="http://www.w3.org/2000/svg" xmlns:xlink="http://www.w3.org/1999/xlink">
    <!-- Generator: Sketch 3.7.1 (28215) - http://www.bohemiancoding.com/sketch -->
    <title>path0_fill</title>
    <desc>Created with Sketch.</desc>
    <defs></defs>
    <g id="Symbols" stroke="none" stroke-width="1" fill="none" fill-rule="evenodd">
        <g id="Navs-/-Web-Nav---Open" transform="translate(-200.000000, -10.000000)" fill="#FFFFFF">
            <g id="Icons-/-Connect" transform="translate(190.000000, 0.000000)">
                <path d="M12.6036677,10.7238095 C12.0997643,10.2199074 11.282777,10.2199074 10.7788775,10.7238095 C10.2749754,11.227709 10.2749754,12.0446964 10.7788775,12.5485997 L14.200365,15.9700847 L10.7788775,19.3915632 C10.2749754,19.8954988 10.2749754,20.7124668 10.7788775,21.2163379 C11.282777,21.7202736 12.0997643,21.7202736 12.6036677,21.2163379 L16.0251526,17.794853 L19.4466311,21.2163379 C19.9505668,21.7202736 20.7675348,21.7202736 21.2714059,21.2163379 C21.7753415,20.7124668 21.7753415,19.8954988 21.2714059,19.3915632 L17.8499209,15.9700847 L21.2714059,12.5485997 C21.7753415,12.0446964 21.7753415,11.227709 21.2714059,10.7238095 C20.7675348,10.2199074 19.9505668,10.2199074 19.4466311,10.7238095 L16.0251526,14.145297 L12.6036677,10.7238095 L12.6036677,10.7238095 Z" id="path0_fill"></path>
            </g>
        </g>
    </g>
</svg>