<?xml version="1.0" encoding="UTF-8" standalone="no"?>
<svg width="20px" height="16px" viewBox="0 0 20 16" version="1.1" xmlns="http://www.w3.org/2000/svg" xmlns:xlink="http://www.w3.org/1999/xlink">
    <!-- Generator: Sketch 3.7.1 (28215) - http://www.bohemiancoding.com/sketch -->
    <title>Shape</title>
    <desc>Created with Sketch.</desc>
    <defs></defs>
    <g id="Symbols" stroke="none" stroke-width="1" fill="none" fill-rule="evenodd">
        <g id="Navs-/-Web-Nav---Open" transform="translate(-238.000000, -8.000000)" fill="#FFFFFF">
            <g id="Icons-/-Twitter" transform="translate(232.000000, 0.000000)">
                <path d="M25.6974648,9.89305177 C24.9724875,10.2142948 24.1945973,10.4321581 23.37728,10.5294225 C24.2118165,10.029679 24.8506333,9.23701569 25.1534019,8.29539808 C24.3705874,8.75819271 23.5065045,9.09424102 22.5858074,9.27641068 C21.8485353,8.48989477 20.7998367,8 19.6366544,8 C17.4051082,8 15.5957387,9.80936959 15.5957387,12.0396927 C15.5957387,12.3560113 15.6314323,12.6649595 15.7003736,12.9603898 C12.342594,12.791738 9.36515,11.1830125 7.3723877,8.73849521 C7.02404455,9.33424794 6.82587871,10.0284238 6.82587871,10.7694295 C6.82587871,12.1713956 7.53978423,13.4084113 8.62295347,14.1321334 C7.96073778,14.1099898 7.33791708,13.9278201 6.79266333,13.6250194 L6.79266333,13.6754862 C6.79266333,15.6325548 8.18600375,17.2659021 10.0335131,17.6376441 C9.6950187,17.7287289 9.33808203,17.7791957 8.96881834,17.7791957 C8.70789087,17.7791957 8.45555692,17.7533508 8.20814735,17.7041071 C8.72263181,19.3103865 10.2144597,20.4784609 11.9819882,20.5104854 C10.5997196,21.5936547 8.85681296,22.2373959 6.96376119,22.2373959 C6.63759382,22.2373959 6.31631863,22.2176984 6,22.1820047 C7.78844905,23.3304139 9.91169117,24 12.1937041,24 C19.62687,24 23.6899616,17.8432126 23.6899616,12.5037426 L23.6764115,11.9806324 C24.4702979,11.4143937 25.1571033,10.7029665 25.6974648,9.89305177 L25.6974648,9.89305177 L25.6974648,9.89305177 Z" id="Shape"></path>
            </g>
        </g>
    </g>
</svg>