<?xml version="1.0" encoding="UTF-8" standalone="no"?>
<svg width="16px" height="13px" viewBox="0 0 16 13" version="1.1" xmlns="http://www.w3.org/2000/svg" xmlns:xlink="http://www.w3.org/1999/xlink">
    <!-- Generator: Sketch 3.7.1 (28215) - http://www.bohemiancoding.com/sketch -->
    <title>work icon</title>
    <desc>Created with Sketch.</desc>
    <defs></defs>
    <g id="Symbols" stroke="none" stroke-width="1" fill="none" fill-rule="evenodd">
        <g id="Navs-/-Web-Nav---Connect" transform="translate(-103.000000, -10.000000)" fill="#000000">
            <g id="Icons-/-Work" transform="translate(95.000000, 0.000000)">
                <path d="M12,12.56 L9.00087166,12.56 C8.44463086,12.56 8,13.0079386 8,13.5604988 L8,21.7995012 C8,22.36 8.4481055,22.8 9.00087166,22.8 L22.9991283,22.8 C23.5553691,22.8 24,22.3520614 24,21.7995012 L24,13.5604988 C24,13 23.5518945,12.56 22.9991283,12.56 L20,12.56 L20,11.0089148 C20,10.4404968 19.5536144,10 19.0029699,10 L12.9970301,10 C12.4530363,10 12,10.4517065 12,11.0089148 L12,12.56 Z M12.9964588,13.8399998 L9.33333333,13.8399998 L9.33333333,21.5199995 L22.6666667,21.5199995 L22.6666667,13.8399998 L19.0035273,13.8399998 C19.0033415,13.8399999 19.0031557,13.84 19.0029699,13.84 L12.9970301,13.84 C12.9968397,13.84 12.9966492,13.8399999 12.9964588,13.8399998 Z M18.6666667,12.56 L13.3333333,12.56 L13.3333333,11.28 L18.6666667,11.28 L18.6666667,12.56 L18.6666667,12.56 Z" id="work-icon"></path>
            </g>
        </g>
    </g>
</svg>